<?xml version="1.0" ?><!DOCTYPE svg  PUBLIC '-//W3C//DTD SVG 1.1//EN'  'http://www.w3.org/Graphics/SVG/1.1/DTD/svg11.dtd'><svg enable-background="new 0 0 93.877 117.218" height="117.218px" id="Layer_1" version="1.1" viewBox="0 0 93.877 117.218" width="93.877px" xml:space="preserve" xmlns="http://www.w3.org/2000/svg" xmlns:xlink="http://www.w3.org/1999/xlink"><g><path d="M46.892,111.517h0.095c2.105-5.158,4.154-11.849,5.883-18.539c-0.876-5.699-2.279-10.646-3.061-13.15   c0.671-1.91,2.205-3.92,2.498-5.746c0.307-1.911-0.338-3.212-1.318-4.426c-0.406-0.502-1.066-0.701-1.532-0.346l-1.675,1.162   c-0.466,0.354-1.221,0.354-1.688,0l-1.675-1.162c-0.465-0.355-1.125-0.156-1.531,0.346c-0.981,1.214-1.626,2.515-1.32,4.426   c0.293,1.826,1.828,3.836,2.499,5.748c-0.782,2.506-2.184,7.445-3.061,13.145C42.736,99.665,44.784,106.359,46.892,111.517z" fill="#283077"/><g><path d="M62.642,34.055c-0.011,0.017-0.032,0.033-0.044,0.05c-0.078,1.65-0.199,2.924-0.199,2.924    c-0.027,0.22,0.301,0.377,0.457,0.042c0.256-0.55,0.924-2.643,1.861-2.708c0.631-0.033,1.031,0.673,1.139,1.023    c0.18,0.589,0.32,1.765,0.068,4.217c-0.221,2.126-0.673,4.503-1.01,5.296c-0.212,0.496-0.604,0.822-1.166,0.97    c-1.596,0.43-1.955,1.389-2.027,1.917c-0.185,1.341-0.518,3.311-1.031,5.079c-0.85,2.92-6.219,9.792-12.771,9.853    c-0.324,0.007-1.776,0.01-2.173-0.002c-6.329-0.2-11.615-6.613-12.559-9.851c-0.457-1.572-0.769-3.307-0.963-4.615    c-0.024-0.16-0.046-0.317-0.067-0.464c-0.07-0.528-0.43-1.487-2.025-1.917c-0.563-0.148-0.956-0.475-1.165-0.97    c-0.338-0.792-0.79-3.169-1.01-5.296c-0.251-2.452-0.113-3.628,0.067-4.217c0.109-0.35,0.508-1.057,1.138-1.023    c0.941,0.064,1.608,2.157,1.863,2.708c0.156,0.335,0.483,0.178,0.455-0.042c0,0-0.09-1.262-0.172-2.893    c-0.02-0.025-0.056-0.051-0.072-0.081c-0.373-0.629-1.585-1.163-2.76-1.163c0,0-0.379,0-0.848,0c-0.468,0-1.225,0.36-1.539,0.909    c-0.777,1.36-0.954,3.322-0.639,6.384c0.017,0.169,0.425,4.085,1.195,5.896c0.538,1.26,1.53,2.256,2.822,2.845    c0.185,1.119,0.471,2.6,0.876,3.992c1.199,4.12,7.358,11.606,15.362,11.862c0.201,0.008,0.664,0.01,1.124,0.01l1.046-0.004    c8.037-0.077,14.469-7.765,15.662-11.868c0.406-1.396,0.691-2.874,0.875-3.992c1.295-0.589,2.285-1.585,2.822-2.847    c0.771-1.809,1.18-5.725,1.196-5.892c0.317-3.085,0.135-5.053-0.658-6.416c-0.318-0.546-1.071-0.915-1.534-0.904    c-0.417,0.01-0.835,0.024-0.835,0.024C64.227,32.892,63.015,33.425,62.642,34.055z" fill="#3A3C45"/><path d="M68.46,19.22c-0.692-6.266-4.07-11.718-8.957-15.199c-0.54-0.387-1.103-0.143-1.233,0.506l-2.697,13.352    c-0.523,2.604-1.227,4.665-1.568,4.609c-0.34-0.061-0.334-2.233,0.012-4.86l1.898-14.403c0.087-0.659-0.328-1.42-0.945-1.669    C52.487,0.558,49.779,0,46.938,0c-2.836,0-5.539,0.558-8.021,1.552c-0.617,0.247-1.034,1.011-0.947,1.669l1.899,14.407    c0.347,2.627,0.351,4.8,0.01,4.86c-0.341,0.056-1.043-2.005-1.567-4.609L35.616,4.524c-0.131-0.649-0.694-0.894-1.235-0.508    c-4.891,3.483-8.272,8.935-8.964,15.205c-0.146,1.319-0.761,2.399-1.535,2.399c-0.776,0-1.404,1.071-1.404,2.399v4.201    c0,1.328,1.077,2.404,2.407,2.404h1.181c1.329,0,2.698,0.646,3.121,1.415c0.151,0.281,0.45,0.53,0.828,0.741    c0.544,0.297,1.344,0.882,1.934,1.187c2.206,1.136,8.081,1.954,14.99,1.954c6.91,0,12.784-0.818,14.989-1.954    c0.591-0.305,1.392-0.89,1.935-1.187c0.378-0.211,0.677-0.46,0.828-0.741c0.422-0.769,1.791-1.415,3.121-1.415h1.18    c1.331,0,2.408-1.076,2.408-2.404v-4.201c0-1.328-0.629-2.399-1.404-2.399C69.221,21.62,68.606,20.539,68.46,19.22z" fill="#283077"/></g><path d="M93.846,112.647L92.28,86.888c-0.252-2.524-1.882-5.205-3.641-5.988c0,0-21.146-9.559-21.166-9.572   c-0.824-0.529-5.258-5.012-5.258-5.012c-0.395-0.457-0.869-0.735-1.243-0.688c-0.394,0.013-0.691,0.356-0.698,1.206v0.175   c0.572,5.623-6.629,35.319-13.315,45.456l-0.02,0.002l-0.021-0.002c-6.686-10.137-13.887-39.833-13.314-45.456l-0.001-0.175   c-0.006-0.85-0.305-1.193-0.698-1.206c-0.374-0.047-0.848,0.231-1.243,0.688c0,0-5.279,5.056-5.296,5.074   C26.018,71.61,5.238,80.9,5.238,80.9c-1.759,0.783-3.389,3.464-3.641,5.988l-1.566,25.759c-0.252,2.523,1.042,4.571,2.89,4.571   h88.036C92.804,117.218,94.098,115.17,93.846,112.647z M76.503,97.793c0,0.368-0.263,0.667-0.587,0.667H62.589   c-0.323,0-0.586-0.299-0.586-0.667v-6.666c0-0.368,0.263-0.667,0.586-0.667h13.327c0.324,0,0.587,0.299,0.587,0.667V97.793z" fill="#3A3C45"/></g></svg>