<?xml version="1.0" ?><svg id="Layer_1_1_" style="enable-background:new 0 0 64 64;" version="1.1" viewBox="0 0 64 64" xml:space="preserve" xmlns="http://www.w3.org/2000/svg" xmlns:xlink="http://www.w3.org/1999/xlink"><g/><g><path d="M52.172,41.477L32.34,44.926l-5.633-5.633C26.52,39.105,26.266,39,26,39H16c0-0.553-0.447-1-1-1h-4H4v2h6v14H4v2h7h4   c0.553,0,1-0.447,1-1h2.764l10.691,5.346c0.462,0.231,0.963,0.347,1.462,0.347c0.569,0,1.137-0.149,1.646-0.446L54.379,47.52   c1-0.583,1.621-1.664,1.621-2.822c0-0.967-0.425-1.879-1.165-2.502C54.097,41.573,53.122,41.312,52.172,41.477z M14,54h-2V40h2V54z    M53.371,45.792L31.556,58.519c-0.37,0.216-0.821,0.23-1.206,0.038l-10.902-5.451C19.309,53.036,19.155,53,19,53h-3V41h9.586   l7.879,7.879C33.805,49.219,34,49.69,34,50.172C34,51.18,33.18,52,32.172,52c-0.481,0-0.953-0.195-1.293-0.535l-5.172-5.172   l-1.414,1.414l5.172,5.172C30.188,53.602,31.149,54,32.172,54C34.282,54,36,52.282,36,50.172c0-1.022-0.398-1.984-1.121-2.707   l-0.81-0.81l18.444-3.208c0.371-0.067,0.747,0.037,1.034,0.279C53.835,43.968,54,44.322,54,44.697   C54,45.146,53.759,45.566,53.371,45.792z"/><path d="M60,10V8h-6.281C53.537,7.811,53.284,8,53,8h-4c-0.553,0-1,0-1,1h-2.764L34.544,3.5c-0.991-0.496-2.153-0.535-3.107,0.022   L9.621,16.21C8.621,16.793,8,17.855,8,19.013c0,0.967,0.425,1.868,1.164,2.491c0.595,0.5,1.338,0.763,2.102,0.763   c0.188,0,0.375-0.019,0.562-0.051l19.831-3.45l5.633,5.787C37.48,24.74,37.734,25,38,25h10c0,0,0.447,1,1,1h3.281   c0.182,0,0.435,0,0.719,0h7v-2h-6V10H60z M38.414,23l-7.878-8.032C30.19,14.622,30,14.085,30,13.597   c0-1.009,0.82-1.868,1.828-1.868c0.488,0,0.947,0.171,1.293,0.517l5.172,5.161l1.414-1.419l-5.171-5.172   c-0.723-0.725-1.685-1.124-2.708-1.124c-2.11,0-3.828,1.717-3.828,3.828c0,1.021,0.397,1.982,1.121,2.707l0.809,0.809   l-18.444,3.208c-0.374,0.065-0.747-0.038-1.035-0.279C10.165,19.723,10,19.369,10,18.994c0-0.45,0.241-0.87,0.629-1.096   L32.444,5.172c0.37-0.215,0.821-0.23,1.206-0.038l10.902,5.606C44.691,10.809,44.845,11,45,11h3v12H38.414z M50,10h2v14h-2V10z"/><path d="M32,27.048c-1.629-1.426-4.175-1.389-5.757,0.116C25.441,27.928,25,28.946,25,30.033c0,1.086,0.441,2.104,1.243,2.867   l5.067,4.824C31.504,37.908,31.752,38,32,38s0.496-0.092,0.689-0.275l5.067-4.824C38.559,32.137,39,31.119,39,30.033   c0-1.087-0.441-2.105-1.243-2.869c0-0.001,0-0.001,0-0.001C36.174,25.658,33.628,25.623,32,27.048z M36.378,31.451L32,35.619   l-4.378-4.168C27.222,31.069,27,30.565,27,30.032s0.221-1.038,0.622-1.42c0.431-0.41,0.997-0.615,1.562-0.615   c0.566,0,1.132,0.205,1.562,0.615l0.563,0.536c0.387,0.367,0.992,0.367,1.379,0l0.563-0.536c0.861-0.82,2.262-0.819,3.125-0.001   C36.779,28.994,37,29.499,37,30.032S36.778,31.069,36.378,31.451z"/><path d="M20.396,24.165l-1.658-1.119c-0.398,0.59-0.76,1.21-1.073,1.841l1.791,0.891C19.729,25.225,20.046,24.683,20.396,24.165z"/><path d="M16.335,35.275c0.146,0.698,0.339,1.39,0.574,2.053l1.885-0.666c-0.205-0.58-0.374-1.185-0.502-1.797L16.335,35.275z"/><path d="M16.297,28.918l1.963,0.383c0.119-0.61,0.28-1.216,0.479-1.802l-1.895-0.643C16.617,27.526,16.434,28.22,16.297,28.918z"/><path d="M16,32.003c0.001,0.389,0.015,0.775,0.042,1.158l1.994-0.141C18.013,32.683,18.001,32.341,18,32   c0-0.284,0.008-0.566,0.025-0.847l-1.996-0.123C16.01,31.352,16,31.675,16,32.003z"/><path d="M45.204,27.334c0.208,0.589,0.376,1.193,0.501,1.796l1.959-0.406c-0.144-0.69-0.337-1.381-0.573-2.054L45.204,27.334z"/><path d="M43.605,39.831l1.656,1.121c0.398-0.589,0.761-1.208,1.075-1.842l-1.791-0.891C44.271,38.774,43.954,39.316,43.605,39.831z   "/><path d="M45.262,36.499l1.895,0.643c0.228-0.67,0.411-1.363,0.548-2.062l-1.963-0.383C45.622,35.308,45.461,35.913,45.262,36.499z"/><path d="M48,32.003c0.001-0.393-0.014-0.783-0.042-1.17l-1.994,0.146C45.988,31.315,46.001,31.655,46,32   c0,0.283-0.008,0.564-0.025,0.844l1.996,0.123C47.99,32.646,48,32.324,48,32.003z"/></g></svg>