<?xml version="1.0" ?><!DOCTYPE svg  PUBLIC '-//W3C//DTD SVG 1.1//EN'  'http://www.w3.org/Graphics/SVG/1.1/DTD/svg11.dtd'><svg enable-background="new 0 0 480 480" height="480px" id="Layer_1" version="1.1" viewBox="0 0 480 480" width="480px" xml:space="preserve" xmlns="http://www.w3.org/2000/svg" xmlns:xlink="http://www.w3.org/1999/xlink"><g><path d="M152.218,201.733h-1.212c-1.84-15.603-8.892-29.187-18.981-38.09L119.781,199.5l4.253-41.515   c-5.105-2.877-10.727-4.626-16.631-5.142c-1.352-0.183-2.714-0.301-4.104-0.301c-2.81,0-5.545,0.427-8.206,1.148   c-3.598,0.84-7.068,2.117-10.335,3.864l4.301,41.944l-12.432-36.399c-10.438,8.888-17.774,22.691-19.651,38.632h-2.585   c-3.037,0-5.492,2.461-5.492,5.496v9.962c0,3.034,2.455,5.495,5.492,5.495h5.208c2.789,30.522,21.303,54.203,43.7,54.203   c22.409,0,40.917-23.681,43.711-54.203h5.208c3.036,0,5.492-2.461,5.492-5.495v-9.962   C157.709,204.194,155.253,201.733,152.218,201.733z M103.298,265.896c-16.502,0-30.184-18.771-32.679-43.21h65.363   C133.495,247.125,119.807,265.896,103.298,265.896z" fill="#3D3D3D"/><rect fill="#3D3D3D" height="10.648" width="12.7" x="50.213" y="350.809"/><rect fill="#3D3D3D" height="10.648" width="12.701" x="147.01" y="350.809"/><path d="M164.688,290.639v46.195h-22.655v-53.408c-2.441-0.365-4.924-0.623-7.434-0.758   c-8.442,6.518-19.184,10.434-30.897,10.434c-11.713,0-22.457-3.916-30.898-10.434c-2.065,0.107-4.093,0.355-6.114,0.623v53.543   H44.035v-46.889c-26.002,12.313-43.996,38.746-43.996,69.457v31.596h39.189V344.17h129.98v46.828h38.16v-31.596   C207.369,329.223,189.965,303.214,164.688,290.639z" fill="#3D3D3D"/><path d="M288.229,138.191h-1.213c-1.841-15.603-8.893-29.187-18.98-38.091l-12.243,35.857l4.253-41.514   c-5.105-2.877-10.729-4.627-16.631-5.143c-1.354-0.183-2.715-0.3-4.104-0.3c-2.81,0-5.545,0.427-8.206,1.148   c-3.598,0.84-7.068,2.117-10.334,3.864l4.301,41.943l-12.432-36.399c-10.437,8.888-17.774,22.692-19.651,38.633h-2.584   c-3.037,0-5.492,2.461-5.492,5.495v9.962c0,3.035,2.456,5.496,5.492,5.496h5.207c2.789,30.522,21.303,54.201,43.7,54.201   c22.408,0,40.917-23.679,43.71-54.201h5.209c3.035,0,5.492-2.461,5.492-5.496v-9.962   C293.721,140.652,291.264,138.191,288.229,138.191z M239.309,202.354c-16.503,0-30.185-18.771-32.679-43.21h65.363   C269.505,183.583,255.816,202.354,239.309,202.354z" fill="#2B5FB2"/><rect fill="#3D3D3D" height="10.647" width="12.7" x="186.223" y="287.268"/><rect fill="#3D3D3D" height="10.647" width="12.701" x="283.02" y="287.268"/><path d="M424.811,201.733h-1.212c-1.841-15.603-8.893-29.187-18.981-38.09L392.374,199.5l4.253-41.515   c-5.105-2.877-10.727-4.626-16.632-5.142c-1.353-0.183-2.714-0.301-4.104-0.301c-2.81,0-5.545,0.427-8.206,1.148   c-3.598,0.84-7.067,2.117-10.335,3.864l4.302,41.944l-12.432-36.399c-10.438,8.888-17.773,22.691-19.651,38.632h-2.584   c-3.037,0-5.492,2.461-5.492,5.496v9.962c0,3.034,2.455,5.495,5.492,5.495h5.208c2.789,30.522,21.303,54.203,43.698,54.203   c22.408,0,40.918-23.681,43.711-54.203h5.209c3.036,0,5.491-2.461,5.491-5.495v-9.962   C430.302,204.194,427.847,201.733,424.811,201.733z M375.891,265.896c-16.503,0-30.185-18.771-32.679-43.21h65.362   C406.087,247.125,392.399,265.896,375.891,265.896z" fill="#3D3D3D"/><rect fill="#3D3D3D" height="10.648" width="12.7" x="322.805" y="350.809"/><rect fill="#3D3D3D" height="10.648" width="12.7" x="419.602" y="350.809"/><path d="M437.28,290.639v46.195h-22.655v-53.408c-2.44-0.365-4.924-0.623-7.435-0.758   c-8.441,6.518-19.185,10.434-30.896,10.434c-11.714,0-22.457-3.916-30.897-10.434c-2.065,0.107-4.094,0.355-6.114,0.623v53.543   h-22.654v-46.889c-26.002,12.313-43.996,38.746-43.996,69.457v31.596h39.19V344.17h129.979v46.828h38.16v-31.596   C479.961,329.223,462.558,303.214,437.28,290.639z" fill="#3D3D3D"/><path d="M339.698,273.793C333.556,253.318,319,236.473,300,227.097V273h-22v-53.117   c-3-0.364-4.883-0.622-7.393-0.757c-8.443,6.517-19.164,10.434-30.878,10.434c-11.712,0-22.315-3.917-30.756-10.434   c-2.065,0.108-4.973,0.354-5.973,0.623V273h-23v-46.596c-20,9.213-34.573,26.333-40.92,47.232   c17.148,2.021,30.92,9.195,35.92,12.244V280h130v5.965C310,283.037,322.978,276.023,339.698,273.793z" fill="#2B5FB2"/></g></svg>